# xmcd CD database file
#
# Track frame offsets:
#	150
#	13733
#	24772
#	37174
#	47780
#	68837
#	83409
#	95952
#	114213
#	131922
#	149227
#	159263
#
# Disc length: 2177 seconds
#
# Revision: 0
# Processed by: cddbd v1.5.2PL0 Copyright (c) Steve Scherf et al.
# Submitted via: CDex 1.51
#
DISCID=a1087f0c
DTITLE=Wayne Hancock - Ride
DYEAR=2013
DGENRE=Country
TTITLE0=Ride
TTITLE1=Low Down Blues
TTITLE2=Best To Be Alone
TTITLE3=Lone Road Home
TTITLE4=Get The Blues Low Down
TTITLE5=Deal Gone Down
TTITLE6=Fair Weather Blues
TTITLE7=Home With My Baby
TTITLE8=Gal From Kitchen's Field
TTITLE9=Cappuccino Boogie
TTITLE10=Any Old TIme
TTITLE11=extra
EXTD=YEAR: 2013
EXTT0=
EXTT1=
EXTT2=
EXTT3=
EXTT4=
EXTT5=
EXTT6=
EXTT7=
EXTT8=
EXTT9=
EXTT10=
EXTT11=
PLAYORDER=
